<svg width="503" height="311" viewBox="0 0 503 311" fill="none" xmlns="http://www.w3.org/2000/svg">
<path d="M247.821 130.692C237.785 149.925 235.253 160.147 204.81 179.232C204.574 179.386 204.397 179.615 204.308 179.883C199.444 194.961 191.211 208.733 180.233 220.156C180.085 220.308 179.981 220.498 179.932 220.704C179.883 220.911 179.891 221.127 179.954 221.329C183.361 232.668 187.049 253.112 176.789 269.869C161.707 294.54 150.537 279.644 152.863 274.058C154.855 269.273 171.873 258.995 167.945 233.32C167.912 233.115 167.826 232.921 167.697 232.758C167.567 232.595 167.398 232.468 167.206 232.39C167.013 232.311 166.803 232.284 166.597 232.31C166.39 232.336 166.194 232.414 166.027 232.538C153.692 241.491 139.534 247.613 124.562 250.469C124.396 250.496 124.238 250.559 124.097 250.652C123.957 250.745 123.838 250.867 123.748 251.009C123.658 251.152 123.6 251.312 123.576 251.479C123.553 251.646 123.565 251.816 123.613 251.977C127.43 265.643 129.236 287.001 113.298 306.643C104.789 316.883 93.5056 301.913 104.789 291.711C111.789 285.399 111.25 267.246 107.973 253.263C107.91 252.991 107.755 252.75 107.534 252.58C107.314 252.411 107.041 252.323 106.762 252.332C106.111 252.35 105.44 252.35 104.789 252.35C81.7591 252.385 59.3691 244.775 41.1303 230.713C40.9635 230.583 40.7656 230.498 40.5561 230.467C40.3465 230.437 40.1327 230.461 39.9354 230.538C39.7382 230.615 39.5644 230.742 39.4311 230.907C39.2978 231.071 39.2097 231.268 39.1753 231.477C34.7996 260.373 52.1721 270.372 54.6476 277.782C57.4033 286.068 51.0727 293.441 43.2714 291.356C43.1023 291.305 42.9443 291.223 42.806 291.113C17.3724 272.01 19.588 231.979 22.3808 212.709C22.4064 212.551 22.398 212.39 22.3562 212.236C22.3144 212.082 22.2402 211.938 22.1386 211.815C7.91562 193.512 0.215525 170.982 0.261188 147.803C0.261188 105.295 25.639 68.7085 62.0767 52.3797C62.0791 52.3798 62.0816 52.3793 62.0839 52.3785C62.0862 52.3776 62.0883 52.3762 62.09 52.3745C62.0918 52.3728 62.0931 52.3707 62.0941 52.3685C62.095 52.3662 62.0954 52.3637 62.0954 52.3613C67.6995 45.2663 74.5329 35.2317 75.5759 28.1938C75.6103 27.9553 75.7149 27.7326 75.8766 27.5539C76.0382 27.3753 76.2494 27.2489 76.4832 27.1909C76.7171 27.1329 76.9629 27.1459 77.1892 27.2284C77.4156 27.3108 77.6123 27.4588 77.7541 27.6536C80.4353 31.2656 84.5875 38.1548 83.6752 45.4163C83.6378 45.6581 83.6194 45.9 83.582 46.1422C83.5075 46.5521 83.4146 46.943 83.3214 47.3525C83.2282 47.6692 83.1537 47.9856 83.0421 48.3023C84.3442 47.2157 85.5867 46.0596 86.7641 44.839C89.5008 42.0277 92.9641 37.8011 94.4538 33.2767C94.5242 33.0353 94.6678 32.8217 94.8646 32.6653C95.0615 32.5088 95.302 32.4172 95.5531 32.4031C95.8041 32.389 96.0534 32.4529 96.2666 32.5863C96.4798 32.7196 96.6464 32.9158 96.7435 33.1477C97.711 35.531 98.8475 38.8637 99.2384 42.2709C99.2721 42.5765 99.4187 42.8585 99.6494 43.0617C99.8801 43.2649 100.178 43.3746 100.486 43.3694C101.92 43.3136 103.353 43.2765 104.787 43.2765C162.524 43.2765 209.333 90.0848 209.333 147.804C209.333 149.126 209.314 150.429 209.258 151.732C209.25 151.931 209.291 152.129 209.376 152.309C209.462 152.489 209.59 152.645 209.749 152.764C209.909 152.884 210.095 152.962 210.292 152.993C210.488 153.024 210.69 153.007 210.878 152.943C217.097 150.764 224.936 145.514 229.665 133.02C238.509 109.746 239.44 103.23 236.647 85.076C233.854 66.9222 247.354 67.8545 250.146 73.9046C252.937 79.9547 258.991 109.28 247.821 130.692Z" fill="#96ccf5"/>
<path d="M63.9546 156.972C63.5985 156.972 63.2526 156.854 62.9707 156.636C62.6889 156.418 62.487 156.114 62.3966 155.769C61.6945 152.703 61.5437 149.536 61.9512 146.417C62.8681 139.637 66.5575 134.654 72.6208 132.006C76.583 130.275 80.3286 130.175 83.7529 131.71C90.7714 134.856 93.7594 143.775 93.8832 144.153C94.0033 144.556 93.9614 144.989 93.7665 145.361C93.5716 145.734 93.2391 146.015 92.8398 146.146C92.4404 146.277 92.0058 146.246 91.6285 146.062C91.2512 145.877 90.9609 145.552 90.8195 145.156C90.794 145.079 88.1363 137.199 82.4242 134.648C79.8667 133.506 77.0032 133.611 73.9127 134.961C68.8956 137.154 65.9512 141.121 65.1617 146.753C64.801 149.487 64.9217 152.262 65.5184 154.954C65.6257 155.368 65.5644 155.808 65.348 156.177C65.1315 156.546 64.7776 156.813 64.3638 156.922C64.2301 156.956 64.0926 156.973 63.9546 156.972Z" fill="white"/>
<path d="M112.564 142.206C112.226 142.206 111.897 142.099 111.622 141.902C111.348 141.704 111.143 141.426 111.036 141.105C110.136 138.104 109.78 134.966 109.984 131.839C110.46 125.043 113.819 119.851 119.699 116.825C123.548 114.845 127.285 114.503 130.807 115.816C137.998 118.493 141.553 127.142 141.701 127.509C141.856 127.905 141.848 128.346 141.68 128.736C141.512 129.126 141.196 129.434 140.802 129.593C140.408 129.752 139.967 129.749 139.575 129.584C139.183 129.42 138.872 129.107 138.709 128.714C138.677 128.639 135.523 121.004 129.669 118.834C127.037 117.857 124.179 118.146 121.175 119.693C116.311 122.196 113.631 126.325 113.209 131.968C113.027 134.704 113.327 137.452 114.096 140.085C114.176 140.327 114.197 140.585 114.158 140.838C114.119 141.09 114.021 141.329 113.871 141.536C113.722 141.743 113.526 141.912 113.298 142.028C113.071 142.145 112.82 142.205 112.564 142.206H112.564Z" fill="white"/>
<path d="M108.461 175.94C97.4855 175.94 89.1173 168.636 88.6984 168.265C88.54 168.124 88.4109 167.954 88.3184 167.763C88.2259 167.573 88.1719 167.366 88.1593 167.155C88.1468 166.943 88.176 166.731 88.2453 166.531C88.3146 166.331 88.4226 166.147 88.5632 165.988C88.7038 165.83 88.8743 165.701 89.0648 165.608C89.2553 165.516 89.4621 165.462 89.6735 165.449C89.8849 165.437 90.0967 165.466 90.2968 165.535C90.4969 165.605 90.6814 165.713 90.8398 165.853C90.9498 165.95 102.001 175.555 114.443 171.846C126.827 168.156 130.223 152.432 130.256 152.274C130.346 151.859 130.597 151.497 130.953 151.265C131.308 151.034 131.741 150.952 132.157 151.038C132.572 151.123 132.938 151.369 133.173 151.722C133.409 152.076 133.495 152.507 133.415 152.924C132.648 156.181 131.447 159.32 129.844 162.257C126.304 168.784 121.298 173.169 115.364 174.937C113.124 175.605 110.798 175.943 108.461 175.94V175.94Z" fill="white"/>
<path d="M456.059 104.168C455.92 107.669 455.564 111.158 454.993 114.615C447.219 162.17 402.387 194.404 354.833 186.63C307.296 178.859 275.043 134.024 282.818 86.4691C283.314 83.4376 283.969 80.4706 284.744 77.5772C249.474 53.6251 251.534 7.43756 258.295 2.3169C265.123 -2.86826 272.578 1.50096 271.799 15.8442C270.998 36.6735 283.822 53.8992 290.935 61.4022C307.587 28.203 344.391 8.14608 382.979 14.4542C420.427 20.5756 448.364 49.6873 454.761 84.994C461.741 82.4563 474.069 75.1326 484.057 54.3146C485.452 50.1656 485.837 47.1157 485.911 45.2788C485.961 43.5628 486.631 41.9231 487.797 40.6631C489.982 38.3789 493.85 35.9546 498.845 39.6769C499.981 40.5262 500.896 41.6356 501.515 42.9119C502.133 44.1883 502.437 45.5943 502.4 47.0122C502.087 58.2633 493.084 85.6377 456.059 104.168Z" fill="#96ccf5" fill-opacity="1"/>
<path d="M404.18 119.592C401.979 133.061 383.455 141.239 362.819 137.866C342.165 134.49 327.21 120.838 329.412 107.369C329.831 104.861 330.811 102.48 332.279 100.403C332.68 99.8413 333.281 99.4544 333.959 99.3224C334.637 99.1904 335.34 99.3234 335.923 99.694C343.316 104.323 355.019 108.405 368.52 110.612C380.946 112.644 392.445 112.674 400.813 111.086C401.495 110.956 402.2 111.092 402.784 111.468C403.367 111.843 403.784 112.428 403.948 113.103C404.451 115.229 404.53 117.434 404.18 119.592Z" fill="white"/>
<path d="M365.024 92.867C364.79 92.8673 364.559 92.8167 364.347 92.7187C364.134 92.6207 363.946 92.4777 363.794 92.2995C363.642 92.1213 363.531 91.9123 363.469 91.6869C363.406 91.4615 363.393 91.2252 363.431 90.9943C363.972 87.6833 363.176 84.2929 361.217 81.5689C359.259 78.845 356.298 77.0107 352.987 76.4695C349.676 75.9283 346.286 76.7245 343.562 78.6831C340.838 80.6416 339.004 83.602 338.463 86.913C338.394 87.3351 338.16 87.7124 337.812 87.9621C337.465 88.2117 337.033 88.3132 336.611 88.2441C336.189 88.1751 335.812 87.9413 335.562 87.594C335.312 87.2468 335.211 86.8146 335.28 86.3925C335.959 82.2374 338.261 78.5223 341.679 76.0644C345.098 73.6066 349.353 72.6073 353.508 73.2866C357.663 73.9658 361.378 76.2678 363.836 79.6862C366.294 83.1046 367.293 87.3593 366.614 91.5145C366.552 91.8917 366.358 92.2348 366.067 92.4825C365.776 92.7302 365.406 92.8665 365.024 92.867V92.867Z" fill="white"/>
<path d="M403.705 99.1905C403.472 99.1903 403.241 99.1393 403.028 99.0411C402.816 98.9429 402.628 98.7998 402.476 98.6217C402.325 98.4436 402.214 98.2348 402.151 98.0096C402.088 97.7844 402.075 97.5483 402.112 97.3174C402.64 94.0125 401.836 90.633 399.878 87.9192C397.919 85.2055 394.964 83.3786 391.661 82.8387C388.358 82.2988 384.976 83.0899 382.255 85.0387C379.534 86.9875 377.696 89.9352 377.144 93.2362C377.111 93.4457 377.036 93.6466 376.925 93.8273C376.813 94.0079 376.668 94.1648 376.495 94.289C376.323 94.4131 376.128 94.5021 375.922 94.5508C375.715 94.5995 375.501 94.6069 375.292 94.5727C375.082 94.5385 374.882 94.4632 374.702 94.3513C374.521 94.2394 374.365 94.093 374.241 93.9205C374.118 93.748 374.029 93.5529 373.981 93.3462C373.933 93.1395 373.927 92.9253 373.961 92.716C374.652 88.5715 376.958 84.8699 380.373 82.4223C383.788 79.9748 388.035 78.9811 392.181 79.6589C396.328 80.3368 400.037 82.6309 402.495 86.0385C404.953 89.4461 405.96 93.6892 405.295 97.8379C405.233 98.2152 405.04 98.5584 404.748 98.8061C404.457 99.0539 404.088 99.1901 403.705 99.1905Z" fill="white"/>
</svg>
